<svg viewBox="0 0 512 512" xml:space="preserve" xmlns="http://www.w3.org/2000/svg" enable-background="new 0 0 512 512"><path d="M423.4 358c-43.8-6.7-47.1-13.1-47.1-13.1 9-54.1-18.9-122.6-64.6-159.7-60.7-49.3-153.1-13.5-225-88.5-16.8-17.5-7 196.3 83 277.3 65.8 59.2 143.3 41 164.6 31.3 19.3-8.8 32.8-24.9 32.8-24.9 35.1 10.8 52.5 10.2 52.5 10.2 12.3 1.5 18.5-30.4 3.8-32.6zm-80.2 3.6c-115.3-34.1-202-153.8-202-153.8s76.1 89.8 210.2 133.5c.2 6.8-3.8 16.5-8.2 20.3z" fill="#8ce85a" class="fill-000000"></path></svg>