<?xml version="1.0" encoding="utf-8"?>
<!-- Generator: Adobe Illustrator 25.2.1, SVG Export Plug-In . SVG Version: 6.00 Build 0)  -->
<svg version="1.1" id="Layer_1" xmlns="http://www.w3.org/2000/svg" xmlns:xlink="http://www.w3.org/1999/xlink" x="0px" y="0px"
	 viewBox="0 0 48 48" style="enable-background:new 0 0 48 48;" xml:space="preserve">
<style type="text/css">
	.st0{fill:#FFFFFF;}
</style>
<path class="st0" d="M8.1,44C7,44,6,43.6,5.2,42.8C4.4,42,4,41,4,39.9c0-1.2,0.4-2.1,1.2-2.9C6,36.1,7,35.8,8.1,35.8
	s2.1,0.4,2.9,1.2c0.8,0.8,1.2,1.8,1.2,2.9s-0.4,2.1-1.2,2.9C10.3,43.6,9.3,44,8.1,44z M24,44c-1.2,0-2.1-0.4-2.9-1.2
	c-0.8-0.8-1.2-1.8-1.2-2.9c0-1.2,0.4-2.1,1.2-2.9c0.8-0.8,1.8-1.2,2.9-1.2s2.1,0.4,2.9,1.2c0.8,0.8,1.2,1.8,1.2,2.9
	s-0.4,2.1-1.2,2.9C26.1,43.6,25.2,44,24,44z M39.9,44c-1.2,0-2.1-0.4-2.9-1.2c-0.8-0.8-1.2-1.8-1.2-2.9c0-1.2,0.4-2.1,1.2-2.9
	c0.8-0.8,1.8-1.2,2.9-1.2s2.1,0.4,2.9,1.2c0.8,0.8,1.2,1.8,1.2,2.9s-0.4,2.1-1.2,2.9C42,43.6,41,44,39.9,44z M8.1,28.1
	c-1.2,0-2.1-0.4-2.9-1.2C4.4,26.1,4,25.2,4,24s0.4-2.1,1.2-2.9C6,20.3,7,19.9,8.1,19.9s2.1,0.4,2.9,1.2c0.8,0.8,1.2,1.8,1.2,2.9
	s-0.4,2.1-1.2,2.9C10.3,27.7,9.3,28.1,8.1,28.1z M24,28.1c-1.2,0-2.1-0.4-2.9-1.2c-0.8-0.8-1.2-1.8-1.2-2.9c0-1.2,0.4-2.1,1.2-2.9
	c0.8-0.8,1.8-1.2,2.9-1.2s2.1,0.4,2.9,1.2c0.8,0.8,1.2,1.8,1.2,2.9c0,1.2-0.4,2.1-1.2,2.9C26.1,27.7,25.2,28.1,24,28.1z M39.9,28.1
	c-1.2,0-2.1-0.4-2.9-1.2s-1.2-1.8-1.2-2.9c0-1.2,0.4-2.1,1.2-2.9c0.8-0.8,1.8-1.2,2.9-1.2s2.1,0.4,2.9,1.2c0.8,0.8,1.2,1.8,1.2,2.9
	c0,1.2-0.4,2.1-1.2,2.9C42,27.7,41,28.1,39.9,28.1z M8.1,12.2c-1.2,0-2.1-0.4-2.9-1.2C4.4,10.3,4,9.3,4,8.1C4,7,4.4,6,5.2,5.2
	C6,4.4,7,4,8.1,4s2.1,0.4,2.9,1.2C11.9,6,12.2,7,12.2,8.1s-0.4,2.1-1.2,2.9C10.3,11.9,9.3,12.2,8.1,12.2z M24,12.2
	c-1.2,0-2.1-0.4-2.9-1.2c-0.8-0.8-1.2-1.8-1.2-2.9s0.4-2.1,1.2-2.9C21.9,4.4,22.8,4,24,4s2.1,0.4,2.9,1.2C27.7,6,28.1,7,28.1,8.1
	s-0.4,2.1-1.2,2.9C26.1,11.9,25.2,12.2,24,12.2z M39.9,12.2c-1.2,0-2.1-0.4-2.9-1.2c-0.8-0.8-1.2-1.8-1.2-2.9s0.4-2.1,1.2-2.9
	S38.7,4,39.9,4s2.1,0.4,2.9,1.2C43.6,6,44,7,44,8.1s-0.4,2.1-1.2,2.9C42,11.9,41,12.2,39.9,12.2z"/>
</svg>
